HIERARCHY
ROOT Hips
{
	OFFSET -3.958830 18.904000 13.208200
	CHANNELS 6 Xposition Yposition Zposition Zrotation Yrotation Xrotation 
	JOINT LHipJoint
	{
		OFFSET 0.000000 0.000000 0.000000
		CHANNELS 3 Zrotation Yrotation Xrotation
		JOINT LeftUpLeg
		{
			OFFSET 1.800000 -1.400000 0.085000
			CHANNELS 3 Zrotation Yrotation Xrotation
			JOINT LeftLeg
			{
				OFFSET 2.215000 -6.000000 0.000000
				CHANNELS 3 Zrotation Yrotation Xrotation
				JOINT LeftFoot
				{
					OFFSET 2.500000 -6.900000 0.000000
					CHANNELS 3 Zrotation Yrotation Xrotation
					JOINT LeftToeBase
					{
						OFFSET 0.200000 -0.500000 1.950000
						CHANNELS 3 Zrotation Yrotation Xrotation
						End Site
						{
							OFFSET 0.000000 0.000000 0.000000
						}
					}
				}
			}
		}
	}
	JOINT RHipJoint
	{
		OFFSET 0.000000 0.000000 0.000000
		CHANNELS 3 Zrotation Yrotation Xrotation
		JOINT RightUpLeg
		{
			OFFSET -1.800000 -1.400000 0.085000
			CHANNELS 3 Zrotation Yrotation Xrotation
			JOINT RightLeg
			{
				OFFSET -2.215000 -6.000000 0.000000
				CHANNELS 3 Zrotation Yrotation Xrotation
				JOINT RightFoot
				{
					OFFSET -2.500000 -6.900000 0.000000
					CHANNELS 3 Zrotation Yrotation Xrotation
					JOINT RightToeBase
					{
						OFFSET -0.200000 -0.500000 1.950000
						CHANNELS 3 Zrotation Yrotation Xrotation
						End Site
						{
							OFFSET 0.000000 0.000000 0.000000
						}
					}
				}
			}
		}
	}
	JOINT LowerBack
	{
		OFFSET 0.000000 0.000000 0.000000
		CHANNELS 3 Zrotation Yrotation Xrotation
		JOINT Spine
		{
			OFFSET -0.087000 1.940000 -0.288900
			CHANNELS 3 Zrotation Yrotation Xrotation
			JOINT Spine1
			{
				OFFSET 0.000000 1.950000 0.060000
				CHANNELS 3 Zrotation Yrotation Xrotation
				JOINT Neck
				{
					OFFSET 0.000000 0.000000 0.000000
					CHANNELS 3 Zrotation Yrotation Xrotation
					JOINT Neck1
					{
						OFFSET 0.000000 1.600000 0.340000
						CHANNELS 3 Zrotation Yrotation Xrotation
						JOINT Head
						{
							OFFSET 0.000000 1.667000 -0.240000
							CHANNELS 3 Zrotation Yrotation Xrotation
							End Site
							{
								OFFSET 0.000000 0.000000 0.000000
							}
						}
					}
				}
				JOINT LeftShoulder
				{
					OFFSET 0.000000 0.000000 0.000000
					CHANNELS 3 Zrotation Yrotation Xrotation
					JOINT LeftArm
					{
						OFFSET 2.700000 1.550000 -0.730000
						CHANNELS 3 Zrotation Yrotation Xrotation
						JOINT LeftForeArm
						{
							OFFSET 5.450000 0.000000 0.000000
							CHANNELS 3 Zrotation Yrotation Xrotation
							JOINT LeftHand
							{
								OFFSET 3.450000 0.000000 0.000000
								CHANNELS 3 Zrotation Yrotation Xrotation
								JOINT LeftHandIndex1
								{
									OFFSET 0.750000 0.000000 0.000000
									CHANNELS 3 Zrotation Yrotation Xrotation
									End Site
									{
										OFFSET 0.000000 0.000000 0.000000
									}
								}
							}
						}
					}
				}
				JOINT RightShoulder
				{
					OFFSET 0.000000 0.000000 0.000000
					CHANNELS 3 Zrotation Yrotation Xrotation
					JOINT RightArm
					{
						OFFSET -2.700000 1.550000 -0.730000
						CHANNELS 3 Zrotation Yrotation Xrotation
						JOINT RightForeArm
						{
							OFFSET -5.450000 0.000000 0.000000
							CHANNELS 3 Zrotation Yrotation Xrotation
							JOINT RightHand
							{
								OFFSET -3.450000 0.000000 0.000000
								CHANNELS 3 Zrotation Yrotation Xrotation
								JOINT RightHandIndex1
								{
									OFFSET -0.750000 0.000000 0.000000
									CHANNELS 3 Zrotation Yrotation Xrotation
									End Site
									{
										OFFSET 0.000000 0.000000 0.000000
									}
								}
							}
						}
					}
				}
			}
		}
	}
}
MOTION
Frames: 7
Frame Time: 0.016667
-0.156570 16.988590 -2.435780 -1.375191 -21.182648 4.177787 -15.065035 12.635925 4.228412 9.727353 -4.285067 -35.197271 -9.070401 5.528594 13.661983 -1.176890 4.111255 3.373887 0.199180 -0.190140 -0.082550 18.432887 -10.775462 2.114151 -3.078151 1.069586 -11.528685 3.907252 -7.280211 27.493503 -0.323517 -4.806735 3.211040 0.104960 0.749780 0.066440 -3.851823 -2.013715 -7.279059 12.287407 0.259822 10.078853 -0.288650 1.136710 11.784408 0.034937 -8.214913 -10.395413 -19.157799 10.018865 34.860340 -5.522670 6.067430 -7.523360 -16.348994 -5.701548 4.343886 -17.958701 5.025700 -2.230342 -103.186001 -62.135092 63.801210 -4.158085 2.936839 0.769920 0.453780 -0.370390 0.326270 16.170218 11.215524 7.244684 36.969211 -2.738479 -9.192937 53.050457 36.386596 11.782925 1.510473 -1.498797 -0.655050 0.674440 0.253420 -0.338470 
-0.138660 16.958410 -2.435800 -1.497678 -21.066818 4.152870 -15.048570 12.571606 4.248052 10.222333 -4.273487 -35.497100 -9.358781 5.818552 14.707078 -1.115377 4.241185 3.335285 0.228120 -0.130540 -0.082830 18.455899 -10.791499 2.116491 -3.245540 0.995246 -11.235631 4.420977 -7.379168 26.941290 -0.330100 -4.827425 3.227106 0.129960 0.755890 0.067220 -3.921789 -1.884357 -7.286152 12.696503 0.214193 10.112041 -0.832026 1.161681 11.570693 0.057889 -8.043161 -10.143700 -18.456793 9.711486 34.290023 -6.024560 6.309710 -6.901090 -16.917296 -5.741095 4.153546 -17.510905 4.867478 -2.287804 -101.252994 -62.620210 62.703016 -4.154476 2.955819 0.724930 0.472930 -0.366490 0.367530 16.608147 11.087696 7.086288 37.122416 -2.505329 -9.015610 51.704136 36.086881 11.257927 1.517594 -1.535621 -0.631290 0.665850 0.203760 -0.311140 
-0.104710 16.897520 -2.442890 -2.139563 -21.090277 3.802424 -15.004076 12.466686 4.260390 11.983910 -3.931330 -35.504256 -10.110575 6.563127 16.867856 -1.012838 4.616180 3.168845 0.349870 0.029620 -0.034450 18.511224 -10.822700 2.139062 -3.138198 0.966410 -10.545366 5.000725 -7.490077 26.777328 -0.358607 -4.962344 3.181857 0.220460 0.705000 0.072950 -4.090197 -1.632846 -7.315946 13.923676 0.019584 10.854253 -1.610978 1.199852 10.867196 -0.178648 -8.249857 -9.421496 -18.315606 9.350150 32.966611 -5.946280 6.017610 -5.755320 -18.602266 -5.480979 3.546018 -17.078334 4.208089 -2.409823 -94.805584 -63.561047 58.328657 -4.102169 3.083405 0.642550 0.475320 -0.366780 0.423220 18.516768 10.934965 6.539093 35.837453 -1.546955 -8.127985 48.358399 34.543970 9.833477 1.534223 -1.662929 -0.565010 0.585270 0.089040 -0.283510 
-0.066330 16.855420 -2.450800 -2.965308 -21.117618 3.538343 -14.968463 12.323970 4.336051 14.040147 -3.670541 -35.908168 -10.940121 7.804742 20.670238 -0.884342 5.369783 2.881797 0.392300 0.077410 -0.044410 18.570214 -10.806917 2.154546 -3.150837 1.164755 -10.490492 5.854896 -7.824642 27.254387 -0.388563 -5.140792 3.115934 0.247180 0.727750 0.105420 -4.265245 -1.400013 -7.381971 15.377552 -0.326043 11.759745 -2.514958 1.181871 9.692665 -0.493382 -8.773853 -8.892242 -18.965773 9.438585 31.747551 -5.251870 5.380180 -4.646930 -19.735604 -4.985928 3.113258 -18.421622 3.751371 -2.891546 -84.132110 -64.000855 50.180125 -4.082103 3.186756 0.587930 0.497190 -0.383150 0.464290 20.056905 10.806812 5.970956 36.046633 0.032151 -7.334558 42.854918 31.904376 7.694976 1.544933 -1.689363 -0.526460 0.550210 0.057320 -0.248020 
-0.025340 16.838640 -2.442010 -3.445723 -20.942773 3.491420 -14.937714 12.113722 4.405142 15.554798 -3.665259 -36.006911 -12.168212 9.386094 24.866730 -0.805033 6.371997 2.538463 0.353180 0.033350 -0.101760 18.642125 -10.779494 2.129344 -3.602582 1.530052 -11.191903 6.882199 -8.422587 28.556899 -0.391701 -5.409404 3.028010 0.265660 0.830830 0.094180 -4.471845 -1.085227 -7.370522 16.830665 -0.479611 11.629195 -3.534181 1.207344 8.729214 -1.064414 -9.251446 -7.958515 -19.617647 9.822615 30.726762 -4.360300 4.666160 -3.673520 -19.828182 -3.444527 2.148117 -22.295346 1.564120 -3.338823 -68.339287 -62.782153 37.980584 -4.105673 3.175972 0.553980 0.557680 -0.458230 0.470340 20.963422 9.450999 5.037886 37.774891 1.779271 -6.497098 36.372970 28.816258 5.534175 1.519144 -1.613390 -0.578310 0.615620 0.111850 -0.237490 
0.010320 16.844500 -2.421910 -3.599207 -20.521556 3.592065 -14.950144 11.965711 4.496309 16.483269 -3.833545 -35.932148 -13.506488 11.132260 28.897810 -0.631369 7.361517 2.211111 0.287420 -0.028930 -0.162510 18.666529 -10.708419 2.087920 -4.035145 1.880427 -12.230447 7.374058 -8.857127 29.990884 -0.378315 -5.612799 2.967769 0.245600 0.913230 0.075370 -4.526448 -0.955461 -7.383803 17.008029 -0.280193 11.019533 -3.566977 1.302710 7.604581 -1.489539 -9.224909 -7.176645 -19.457969 10.195808 30.555425 -3.619480 4.554500 -1.935200 -19.506497 -1.837672 1.383559 -28.754070 -1.079032 -4.036199 -50.181912 -59.062662 24.244516 -4.108068 3.107594 0.501390 0.606290 -0.520600 0.467810 21.297349 7.867457 4.139723 40.909656 3.366744 -5.789136 28.989473 25.296466 3.418323 1.549065 -1.515704 -0.607130 0.651670 0.152590 -0.216190 
0.048930 16.872390 -2.397530 -3.365446 -19.488044 3.645232 -14.995023 11.914702 4.540540 16.619385 -4.199285 -35.452053 -14.638411 12.772956 32.528270 -0.422474 8.206947 1.925534 0.251010 -0.046320 -0.205690 18.649071 -10.585177 2.044099 -4.956994 2.176919 -13.424243 8.298709 -9.434978 31.112801 -0.373742 -5.810903 2.898334 0.233810 0.947680 0.066640 -4.452704 -1.068415 -7.370356 16.190171 -0.144325 10.165958 -2.741615 1.177013 6.689244 -1.927064 -9.507966 -6.496425 -20.140824 10.813231 30.206071 -3.416170 4.721590 -0.658540 -19.449180 -0.106974 0.830095 -37.077983 -3.783522 -4.751843 -32.712119 -54.399083 12.666737 -4.111353 3.007114 0.438640 0.635210 -0.557610 0.461630 22.003082 6.490179 3.208798 43.574687 4.974540 -5.002739 20.940056 21.335982 1.543459 1.603691 -1.432122 -0.595740 0.648900 0.171950 -0.192390 
